P3
3 3
255
155 0 0
155 0 0
155 0 0
155 155 155
155 155 155
155 155 155
155 0 0
155 0 0
155 0 0
