P3
5 5
255
201 45 45
45 201 45
45 45 245
45 45 45
255 255 255
255 255 255
45 45 45
45 45 245
45 201 45
201 45 45
201 45 45
45 201 45
45 45 245
45 45 45
255 255 255
255 255 255
45 45 45
45 45 245
45 201 45
201 45 45
255 201 45
45 45 201
45 45 45
245 45 45
45 255 255
