P3
5 5
255
0 0 0
0 0 0
150 150 150
0 0 0
205 205 205
205 205 205
0 0 0
150 150 150
0 0 0
0 0 0
0 0 0
0 0 0
150 150 150
0 0 0
205 205 205
205 205 205
0 0 0
150 150 150
0 0 0
0 0 0
0 0 0
106 106 106
0 0 0
0 0 0
205 205 205
