P3
5 5
255
106 0 0
0 106 0
0 0 150
0 0 0
205 205 205
205 205 205
0 0 0
0 0 150
0 106 0
106 0 0
106 0 0
0 106 0
0 0 150
0 0 0
205 205 205
205 205 205
0 0 0
0 0 150
0 106 0
106 0 0
205 106 0
0 0 106
0 0 0
150 0 0
0 205 205
