P3
3 3
255
205 0 0
205 0 0
205 0 0
205 205 205
205 205 205
205 205 205
205 0 0
205 0 0
205 0 0
