P3
3 3
255
18 18 18
18 18 18
18 18 18
182 182 182
182 182 182
182 182 182
54 54 54
54 54 54
54 54 54
